<svg width="44" height="34" viewBox="0 0 44 34" fill="none" xmlns="http://www.w3.org/2000/svg">
<g clip-path="url(#clip0_452_1926)">
<path d="M10.5101 22.0761L0.0777982 21.9998L5.71602 11.1725" fill="#CC0202"/>
<path d="M16.2318 10.5439L5.70577 11.1738L10.5108 22.0775" fill="#AD0000"/>
<path d="M11.4454 0.0818805L5.70574 11.1739L16.2317 10.5441" fill="#C93535"/>
<path d="M16.2313 10.5458L11.3564 0.0830078L21.2576 0.15537" fill="#EC2027"/>
<path d="M26.0106 11.3216L16.2325 10.4549L21.2582 0.152877" fill="#F70B0B"/>
<path d="M26.01 11.3226L16.2319 10.4558L20.2092 20.9856" fill="#EB2329"/>
<path d="M25.7694 32.5457L21.2104 21.3652L31.3351 22.0097" fill="#AD0000"/>
<path d="M21.2606 21.2785L15.2256 31.8753L25.8138 32.5492" fill="#CC0202"/>
<path d="M21.1888 21.3633L31.3353 22.0091L26.9307 11.192L21.1888 21.3633Z" fill="#C93535"/>
<path d="M37.5579 10.9298L26.9135 11.1378L31.1637 22.2986" fill="#EC2027"/>
<path d="M26.9972 11.1964L37.4649 10.9771L33.3521 0.444627L26.9972 11.1964Z" fill="#F70B0B"/>
<path d="M33.2632 0.440186L37.4531 11.1549L43.1456 1.06919L33.2632 0.440186Z" fill="#EB2329"/>
</g>
<defs>
<clipPath id="clip0_452_1926">
<rect width="43.1228" height="32.7272" fill="white" transform="translate(0.239258) rotate(0.418737)"/>
</clipPath>
</defs>
</svg>
