<svg width="167" height="34" viewBox="0 0 167 34" fill="none" xmlns="http://www.w3.org/2000/svg">
<g clip-path="url(#clip0_46_1404)">
<path d="M10.5101 22.0761L0.0777982 21.9998L5.71602 11.1725" fill="#CC0202"/>
<path d="M16.2318 10.5439L5.70577 11.1738L10.5108 22.0775" fill="#AD0000"/>
<path d="M11.4454 0.0818805L5.70574 11.1739L16.2317 10.5441" fill="#C93535"/>
<path d="M16.2313 10.5458L11.3564 0.0830078L21.2576 0.15537" fill="#EC2027"/>
<path d="M26.0106 11.3216L16.2325 10.4549L21.2582 0.152877" fill="#F70B0B"/>
<path d="M26.01 11.3226L16.2319 10.4558L20.2092 20.9856" fill="#EB2329"/>
<path d="M25.7694 32.5457L21.2104 21.3652L31.3351 22.0097" fill="#AD0000"/>
<path d="M21.2606 21.2785L15.2256 31.8753L25.8138 32.5492" fill="#CC0202"/>
<path d="M21.1888 21.3633L31.3353 22.0091L26.9307 11.192L21.1888 21.3633Z" fill="#C93535"/>
<path d="M37.5579 10.9298L26.9135 11.1378L31.1637 22.2986" fill="#EC2027"/>
<path d="M26.9972 11.1964L37.4649 10.9771L33.3521 0.444627L26.9972 11.1964Z" fill="#F70B0B"/>
<path d="M33.2632 0.440186L37.4531 11.1549L43.1456 1.06919L33.2632 0.440186Z" fill="#EB2329"/>
</g>
<path d="M45.9808 25.0558L42.4266 25.0298L47.9567 9.3822L52.2309 9.41344L57.524 25.1401L53.9699 25.1142L50.1289 12.983L50.0063 12.9821L45.9808 25.0558ZM45.8037 18.888L54.1988 18.9494L54.1799 21.5384L45.7848 21.477L45.8037 18.888ZM59.4121 25.1539L59.5268 9.46676L65.7159 9.51199C66.9006 9.52065 67.9101 9.73996 68.7445 10.1699C69.584 10.5948 70.2205 11.1944 70.654 11.9687C71.0927 12.7379 71.3083 13.6408 71.3007 14.6775C71.2931 15.7192 71.0618 16.6137 70.607 17.3611C70.1521 18.1034 69.4969 18.6705 68.6412 19.0626C67.7906 19.4547 66.7627 19.6464 65.5576 19.6376L61.4137 19.6073L61.4332 16.9417L65.0409 16.9681C65.6741 16.9727 66.2007 16.8897 66.6207 16.7192C67.0407 16.5486 67.3541 16.2904 67.5609 15.9447C67.7728 15.599 67.8807 15.1682 67.8844 14.6525C67.8882 14.1316 67.7868 13.6917 67.58 13.3327C67.3784 12.9738 67.0663 12.7008 66.6438 12.5139C66.2264 12.3219 65.6986 12.2236 65.0603 12.2189L62.8236 12.2026L62.7288 25.1782L59.4121 25.1539ZM67.936 18.077L71.7826 25.2443L68.1213 25.2176L64.3589 18.0508L67.936 18.077ZM72.1098 9.55872L75.8248 9.58587L79.3526 16.3679L79.5058 16.369L83.1322 9.63928L86.8472 9.66643L81.0513 19.7661L81.0107 25.3118L77.717 25.2877L77.7576 19.7421L72.1098 9.55872ZM98.3483 9.75048L101.665 9.77472L101.591 19.9622C101.582 21.1061 101.302 22.1049 100.749 22.9588C100.201 23.8128 99.4383 24.4762 98.4594 24.9491C97.4806 25.4168 96.3427 25.646 95.0456 25.6365C93.7435 25.627 92.6064 25.3812 91.6346 24.8992C90.6627 24.412 89.9093 23.7376 89.3743 22.8757C88.8393 22.0139 88.5759 21.011 88.5843 19.8671L88.6588 9.67967L91.9754 9.70391L91.903 19.608C91.8987 20.2054 92.025 20.7375 92.282 21.2041C92.5442 21.6707 92.9143 22.0385 93.3924 22.3076C93.8704 22.5766 94.4286 22.7135 95.0669 22.7181C95.7104 22.7228 96.2705 22.5942 96.7473 22.3321C97.2293 22.0701 97.6022 21.7077 97.866 21.2449C98.1349 20.7821 98.2716 20.252 98.276 19.6545L98.3483 9.75048Z" fill="black"/>
<path d="M107.312 25.5783L105.742 25.5668L109.342 15.7881L111.051 15.8006L114.507 25.6309L112.937 25.6194L110.224 17.5755L110.147 17.575L107.312 25.5783ZM107.603 21.7407L112.697 21.778L112.688 23.0227L107.594 22.9855L107.603 21.7407ZM118.786 25.8105C118.074 25.8053 117.463 25.6397 116.951 25.3136C116.443 24.9843 116.054 24.533 115.783 23.9597C115.513 23.3864 115.381 22.7312 115.386 21.9939C115.391 21.2471 115.537 20.5891 115.822 20.0198C116.107 19.4474 116.506 19.0019 117.019 18.6833C117.532 18.3646 118.135 18.2079 118.827 18.2129C119.386 18.217 119.883 18.3244 120.319 18.535C120.754 18.7425 121.105 19.0323 121.37 19.4045C121.639 19.7767 121.797 20.2103 121.844 20.7054L120.451 20.6952C120.377 20.3499 120.204 20.0518 119.931 19.8009C119.662 19.55 119.299 19.4228 118.842 19.4195C118.443 19.4166 118.093 19.5194 117.792 19.7278C117.493 19.9331 117.26 20.2282 117.091 20.6132C116.922 20.995 116.836 21.4476 116.832 21.971C116.828 22.5072 116.906 22.9705 117.066 23.3611C117.226 23.7516 117.454 24.0549 117.749 24.2709C118.047 24.487 118.399 24.5965 118.804 24.5994C119.076 24.6014 119.322 24.5537 119.543 24.4564C119.767 24.3559 119.955 24.2121 120.106 24.0248C120.261 23.8377 120.369 23.6118 120.432 23.3474L121.825 23.3576C121.77 23.8327 121.612 24.2561 121.351 24.6276C121.09 24.9991 120.742 25.2902 120.306 25.5009C119.874 25.7116 119.367 25.8148 118.786 25.8105ZM125.477 25.8738C125.011 25.8704 124.591 25.7812 124.215 25.6061C123.84 25.4278 123.544 25.1719 123.326 24.8383C123.111 24.5048 123.006 24.0971 123.009 23.6152C123.012 23.2003 123.094 22.8594 123.256 22.5924C123.418 22.3255 123.635 22.1148 123.907 21.9604C124.179 21.806 124.483 21.6902 124.819 21.6128C125.155 21.5355 125.497 21.4773 125.845 21.4384C126.286 21.3905 126.644 21.3517 126.918 21.3218C127.193 21.2887 127.393 21.2343 127.518 21.1586C127.643 21.0829 127.706 20.9589 127.707 20.7865L127.708 20.753C127.711 20.3349 127.595 20.0101 127.36 19.7786C127.129 19.5471 126.782 19.4297 126.319 19.4263C125.837 19.4228 125.457 19.5269 125.178 19.7387C124.902 19.9473 124.71 20.1805 124.603 20.4383L123.26 20.1221C123.423 19.6764 123.658 19.3175 123.967 19.0452C124.278 18.7698 124.636 18.5714 125.039 18.4498C125.442 18.3251 125.865 18.2644 126.309 18.2676C126.602 18.2697 126.913 18.3071 127.241 18.3797C127.573 18.4492 127.881 18.5759 128.167 18.7599C128.456 18.944 128.692 19.2058 128.875 19.5455C129.058 19.882 129.147 20.3183 129.143 20.8545L129.107 25.7376L127.71 25.7274L127.717 24.722L127.659 24.7216C127.566 24.906 127.425 25.0869 127.239 25.2643C127.053 25.4417 126.814 25.5883 126.522 25.7043C126.231 25.8203 125.883 25.8768 125.477 25.8738ZM125.797 24.7271C126.193 24.73 126.532 24.6543 126.814 24.5C127.099 24.3457 127.316 24.143 127.464 23.8919C127.616 23.6377 127.693 23.3653 127.695 23.0749L127.702 22.127C127.651 22.1777 127.552 22.2249 127.404 22.2685C127.261 22.3089 127.096 22.3444 126.911 22.375C126.725 22.4023 126.545 22.4282 126.369 22.4524C126.193 22.4735 126.046 22.4915 125.928 22.5066C125.65 22.5397 125.396 22.5969 125.166 22.6782C124.938 22.7595 124.756 22.8779 124.617 23.0333C124.482 23.1855 124.414 23.3893 124.412 23.6446C124.409 23.9988 124.538 24.2679 124.798 24.4517C125.059 24.6324 125.392 24.7242 125.797 24.7271ZM133.766 25.9152C133.172 25.9109 132.643 25.7554 132.18 25.4488C131.719 25.1391 131.358 24.7007 131.098 24.1339C130.84 23.5639 130.714 22.8815 130.72 22.0868C130.726 21.2921 130.863 20.6133 131.132 20.0503C131.404 19.4874 131.775 19.0576 132.243 18.761C132.711 18.4644 133.24 18.3183 133.831 18.3226C134.287 18.3259 134.654 18.4052 134.93 18.5604C135.21 18.7125 135.426 18.8896 135.577 19.0918C135.732 19.294 135.852 19.472 135.937 19.6258L136.023 19.6265L136.05 15.9833L137.482 15.9938L137.41 25.7982L136.012 25.788L136.02 24.6439L135.901 24.643C135.813 24.7987 135.688 24.9766 135.523 25.1764C135.362 25.3763 135.141 25.5503 134.859 25.6982C134.577 25.8462 134.212 25.9185 133.766 25.9152ZM134.091 24.6968C134.502 24.6998 134.851 24.5938 135.137 24.3789C135.425 24.1607 135.645 23.8575 135.794 23.4692C135.947 23.081 136.025 22.6283 136.029 22.1113C136.033 21.6006 135.963 21.1533 135.819 20.7692C135.675 20.3851 135.462 20.0852 135.179 19.8693C134.897 19.6533 134.546 19.5439 134.128 19.5408C133.697 19.5377 133.338 19.6467 133.049 19.868C132.76 20.0894 132.541 20.3926 132.391 20.7777C132.244 21.1628 132.169 21.5979 132.166 22.083C132.162 22.5745 132.232 23.0171 132.376 23.4107C132.52 23.8044 132.735 24.1171 133.021 24.349C133.309 24.5778 133.666 24.6937 134.091 24.6968ZM142.621 25.9847C141.897 25.9795 141.274 25.8201 140.753 25.5067C140.235 25.1901 139.836 24.7483 139.556 24.1814C139.279 23.6112 139.144 22.9447 139.149 22.182C139.155 21.4287 139.3 20.7659 139.585 20.1935C139.873 19.6211 140.272 19.1756 140.782 18.8569C141.295 18.5383 141.893 18.3815 142.576 18.3865C142.991 18.3895 143.393 18.4611 143.781 18.6012C144.169 18.7412 144.517 18.9592 144.825 19.2551C145.132 19.551 145.373 19.9342 145.549 20.4046C145.724 20.8719 145.809 21.4391 145.804 22.1061L145.801 22.6136L139.955 22.5709L139.963 21.4985L144.406 21.531C144.409 21.1544 144.334 20.8203 144.183 20.5287C144.032 20.234 143.819 20.001 143.542 19.8298C143.269 19.6587 142.947 19.5717 142.577 19.569C142.175 19.5661 141.823 19.6625 141.522 19.8582C141.223 20.0507 140.992 20.3043 140.827 20.6191C140.665 20.9307 140.582 21.27 140.58 21.637L140.574 22.4748C140.57 22.9663 140.653 23.3851 140.823 23.731C140.996 24.077 141.238 24.3421 141.55 24.5263C141.861 24.7073 142.226 24.7993 142.644 24.8024C142.915 24.8044 143.163 24.7679 143.387 24.6929C143.611 24.6147 143.805 24.4981 143.969 24.3429C144.133 24.1877 144.259 23.9955 144.346 23.7663L145.699 24.0204C145.588 24.4185 145.391 24.7666 145.108 25.0646C144.828 25.3593 144.477 25.5882 144.054 25.7511C143.635 25.9108 143.157 25.9887 142.621 25.9847ZM147.365 25.871L147.419 18.5176L148.793 18.5277L148.784 19.7245L148.875 19.7252C149.031 19.321 149.284 19.0068 149.634 18.7828C149.983 18.5555 150.401 18.4437 150.886 18.4472C151.377 18.4508 151.788 18.5687 152.118 18.8009C152.452 19.0332 152.697 19.351 152.853 19.7543L152.93 19.7548C153.108 19.3635 153.39 19.0528 153.775 18.8226C154.159 18.5892 154.617 18.4745 155.146 18.4784C155.813 18.4832 156.356 18.6963 156.774 19.1174C157.196 19.5386 157.403 20.1705 157.397 21.0131L157.361 25.9441L155.93 25.9336L155.965 21.1367C155.968 20.6388 155.835 20.2772 155.566 20.0518C155.296 19.8264 154.973 19.7123 154.596 19.7095C154.13 19.7061 153.767 19.8471 153.507 20.1325C153.246 20.4146 153.114 20.7791 153.111 21.2259L153.076 25.9127L151.65 25.9023L151.686 21.0144C151.688 20.6155 151.566 20.2938 151.319 20.0494C151.072 19.8051 150.749 19.6814 150.35 19.6785C150.079 19.6765 149.828 19.7465 149.597 19.8884C149.369 20.0272 149.184 20.2222 149.042 20.4733C148.903 20.7244 148.832 21.0159 148.83 21.3478L148.797 25.8815L147.365 25.871ZM159.901 28.7203C159.687 28.7187 159.493 28.6997 159.317 28.6634C159.142 28.6302 159.011 28.5941 158.926 28.5552L159.279 27.3848C159.54 27.4569 159.773 27.4889 159.977 27.4808C160.181 27.4728 160.362 27.3975 160.52 27.255C160.68 27.1126 160.823 26.879 160.946 26.5543L161.127 26.0673L158.491 18.5986L160.023 18.6098L161.843 24.3299L161.92 24.3304L163.824 18.6375L165.361 18.6488L162.269 26.9614C162.126 27.3434 161.945 27.666 161.726 27.9293C161.507 28.1958 161.247 28.395 160.946 28.5268C160.645 28.6587 160.297 28.7232 159.901 28.7203Z" fill="black"/>
<defs>
<clipPath id="clip0_46_1404">
<rect width="43.1228" height="32.7272" fill="white" transform="translate(0.239258) rotate(0.418737)"/>
</clipPath>
</defs>
</svg>
